HIERARCHY
ROOT hip
{
  OFFSET 0 0 0
  CHANNELS 6 Xposition Yposition Zposition Zrotation Yrotation Xrotation
  JOINT abdomen
  {
    OFFSET 0 20.6881 -0.73152
    CHANNELS 3 Zrotation Xrotation Yrotation
    JOINT chest
    {
      OFFSET 0 11.7043 -0.48768
      CHANNELS 3 Zrotation Xrotation Yrotation
      JOINT neck
      {
        OFFSET 0 22.1894 -2.19456
        CHANNELS 3 Zrotation Xrotation Yrotation
        JOINT head
        {
          OFFSET -0.24384 7.07133 1.2192
          CHANNELS 3 Zrotation Xrotation Yrotation
          JOINT leftEye
          {
            OFFSET 4.14528 8.04674 8.04672
            CHANNELS 3 Zrotation Xrotation Yrotation
            End Site
            {
              OFFSET 1 0 0
            }
          }
          JOINT rightEye
          {
            OFFSET -3.6576 8.04674 8.04672
            CHANNELS 3 Zrotation Xrotation Yrotation
            End Site
            {
              OFFSET 1 0 0
            }
          }
        }
      }
      JOINT rCollar
      {
        OFFSET -2.68224 19.2634 -4.8768
        CHANNELS 3 Zrotation Xrotation Yrotation
        JOINT rShldr
        {
          OFFSET -8.77824 -1.95073 1.46304
          CHANNELS 3 Zrotation Xrotation Yrotation
          JOINT rForeArm
          {
            OFFSET -28.1742 -1.7115 0.48768
            CHANNELS 3 Zrotation Xrotation Yrotation
            JOINT rHand
            {
              OFFSET -22.5879 0.773209 7.07136
              CHANNELS 3 Zrotation Xrotation Yrotation
              JOINT rThumb1
              {
                OFFSET -1.2192 -0.487915 3.41376
                CHANNELS 3 Zrotation Xrotation Yrotation
                JOINT rThumb2
                {
                  OFFSET -3.37035 -0.52449 3.41376
                  CHANNELS 3 Zrotation Xrotation Yrotation
                  End Site
                  {
                    OFFSET -1.78271 -1.18214 1.43049
                  }
                }
              }
              JOINT rIndex1
              {
                OFFSET -7.75947 0.938293 5.60832
                CHANNELS 3 Zrotation Xrotation Yrotation
                JOINT rIndex2
                {
                  OFFSET -2.54057 -0.884171 1.56538
                  CHANNELS 3 Zrotation Xrotation Yrotation
                  End Site
                  {
                    OFFSET -1.62519 -0.234802 1.16502
                  }
                }
              }
              JOINT rMid1
              {
                OFFSET -8.24714 1.18213 3.41376
                CHANNELS 3 Zrotation Xrotation Yrotation
                JOINT rMid2
                {
                  OFFSET -3.10165 -0.590103 1.0647
                  CHANNELS 3 Zrotation Xrotation Yrotation
                  End Site
                  {
                    OFFSET -2.48547 -0.328903 0.83742
                  }
                }
              }
              JOINT rRing1
              {
                OFFSET -8.82822 0.546677 1.51678
                CHANNELS 3 Zrotation Xrotation Yrotation
                JOINT rRing2
                {
                  OFFSET -2.60934 -0.819778 -0.0198488
                  CHANNELS 3 Zrotation Xrotation Yrotation
                  End Site
                  {
                    OFFSET -2.33842 -0.294052 0.168128
                  }
                }
              }
              JOINT rPinky1
              {
                OFFSET -8.27202 -0.0477905 -0.4584
                CHANNELS 3 Zrotation Xrotation Yrotation
                JOINT rPinky2
                {
                  OFFSET -1.82734 -0.647385 -0.700984
                  CHANNELS 3 Zrotation Xrotation Yrotation
                  End Site
                  {
                    OFFSET -1.69225 -0.51767 -0.607171
                  }
                }
              }
            }
          }
        }
      }
      JOINT lCollar
      {
        OFFSET 2.68224 19.2634 -4.8768
        CHANNELS 3 Zrotation Xrotation Yrotation
        JOINT lShldr
        {
          OFFSET 8.77824 -1.95073 1.46304
          CHANNELS 3 Zrotation Xrotation Yrotation
          JOINT lForeArm
          {
            OFFSET 28.1742 -1.7115 0.48768
            CHANNELS 3 Zrotation Xrotation Yrotation
            JOINT lHand
            {
              OFFSET 22.5879 0.773209 7.07136
              CHANNELS 3 Zrotation Xrotation Yrotation
              JOINT lThumb1
              {
                OFFSET 1.2192 -0.487915 3.41376
                CHANNELS 3 Zrotation Xrotation Yrotation
                JOINT lThumb2
                {
                  OFFSET 3.37035 -0.52449 3.41376
                  CHANNELS 3 Zrotation Xrotation Yrotation
                  End Site
                  {
                    OFFSET 1.78271 -1.18214 1.43049
                  }
                }
              }
              JOINT lIndex1
              {
                OFFSET 7.75947 0.938293 5.60832
                CHANNELS 3 Zrotation Xrotation Yrotation
                JOINT lIndex2
                {
                  OFFSET 2.54057 -0.884171 1.56538
                  CHANNELS 3 Zrotation Xrotation Yrotation
                  End Site
                  {
                    OFFSET 1.62519 -0.234802 1.16502
                  }
                }
              }
              JOINT lMid1
              {
                OFFSET 8.24714 1.18213 3.41376
                CHANNELS 3 Zrotation Xrotation Yrotation
                JOINT lMid2
                {
                  OFFSET 3.10165 -0.590103 1.0647
                  CHANNELS 3 Zrotation Xrotation Yrotation
                  End Site
                  {
                    OFFSET 2.48547 -0.328903 0.83742
                  }
                }
              }
              JOINT lRing1
              {
                OFFSET 8.82822 0.546677 1.51678
                CHANNELS 3 Zrotation Xrotation Yrotation
                JOINT lRing2
                {
                  OFFSET 2.60934 -0.819778 -0.0198488
                  CHANNELS 3 Zrotation Xrotation Yrotation
                  End Site
                  {
                    OFFSET 2.33842 -0.294052 0.168128
                  }
                }
              }
              JOINT lPinky1
              {
                OFFSET 8.27202 -0.0477905 -0.4584
                CHANNELS 3 Zrotation Xrotation Yrotation
                JOINT lPinky2
                {
                  OFFSET 1.82734 -0.647385 -0.700984
                  CHANNELS 3 Zrotation Xrotation Yrotation
                  End Site
                  {
                    OFFSET 1.69225 -0.51767 -0.607171
                  }
                }
              }
            }
          }
        }
      }
    }
  }
  JOINT rButtock
  {
    OFFSET -8.77824 4.35084 1.2192
    CHANNELS 3 Zrotation Xrotation Yrotation
    JOINT rThigh
    {
      OFFSET 0 -1.70687 -2.19456
      CHANNELS 3 Zrotation Xrotation Yrotation
      JOINT rShin
      {
        OFFSET 0 -36.8199 0.73152
        CHANNELS 3 Zrotation Xrotation Yrotation
        JOINT rFoot
        {
          OFFSET 0.73152 -45.1104 -5.12064
          CHANNELS 3 Zrotation Xrotation Yrotation
          End Site
          {
            OFFSET -1.1221 -3.69964 12.103
          }
        }
      }
    }
  }
  JOINT lButtock
  {
    OFFSET 8.77824 4.35084 1.2192
    CHANNELS 3 Zrotation Xrotation Yrotation
    JOINT lThigh
    {
      OFFSET 0 -1.70687 -2.19456
      CHANNELS 3 Zrotation Xrotation Yrotation
      JOINT lShin
      {
        OFFSET 0 -36.8199 0.73152
        CHANNELS 3 Zrotation Xrotation Yrotation
        JOINT lFoot
        {
          OFFSET -0.73152 -45.1104 -5.12064
          CHANNELS 3 Zrotation Xrotation Yrotation
          End Site
          {
            OFFSET 1.1221 -3.69964 12.103
          }
        }
      }
    }
  }
}
MOTION
Frames:	5
Frame Time:	0.00833333
-5.58692 88.6161 49.7295 -8.4075 -2.5072 7.2127 11.5073 13.25 5.43675 -4.61043 -6.85213 1.61162 -0.127581 9.80973 0.216465 -3.43113 -38.8623 -0.732835 -0.0 0.0 0.0 -0.0 0.0 0.0 -4.90875e-15 -1.01777e-13 1.06698e-13 52.0015 42.6471 20.1606 -25.9484 -46.3718 96.3415 -0.0448561 -6.03348 -0.85113 3.48124e-10 1.30912e-09 -4.74698e-10 6.01392e-10 2.25866e-09 -8.1656e-10 3.48126e-10 1.30912e-09 -4.74701e-10 7.73091 5.47488 0.417314 3.48122e-10 1.30912e-09 -4.74704e-10 2.90554 0.965183 0.102902 3.48135e-10 1.30912e-09 -4.74703e-10 10.2786 0.731801 0.0259123 3.48129e-10 1.30912e-09 -4.74698e-10 2.22167 -0.733487 -0.20892 -5.0308e-15 -1.01779e-13 1.0635e-13 -98.2313 38.0503 33.1074 26.965 -44.1087 -91.6603 0.984545 -26.9787 4.10263 2.39866e-10 7.48758e-10 8.51005e-10 3.96952e-10 1.20721e-09 1.47612e-09 2.39862e-10 7.48754e-10 8.51015e-10 -7.73091 5.47488 -0.417314 2.39868e-10 7.48762e-10 8.51002e-10 -2.90554 0.965183 -0.102902 2.3986e-10 7.48751e-10 8.51004e-10 -10.2786 0.731801 -0.0259123 2.39874e-10 7.48761e-10 8.50986e-10 -2.22167 -0.733487 0.20892 -2.03217e-16 0.0 -3.88251e-19 8.84413 22.8804 11.5578 0.0733661 4.68663 0.665095 3.80631 43.228 -6.11378 2.03217e-16 0.0 3.88251e-19 10.5506 -51.6209 1.04927 0.770147 54.479 -1.24648 0.823144 9.31791 -4.40964
-5.52434 88.965 52.5368 -8.5912 -2.1857 7.485 11.3457 13.3335 5.44641 -4.71153 -6.94312 1.58234 -0.150656 9.48469 0.19416 -3.45043 -38.5617 -0.771127 -0.0 0.0 0.0 -0.0 0.0 0.0 -8.60529e-14 -4.73602e-14 3.12682e-14 51.7883 43.901 19.8982 -25.9407 -46.3793 96.3695 -0.0390197 -5.58931 -0.788125 -1.11479e-11 3.01821e-10 -2.80742e-10 -2.03394e-11 5.15029e-10 -4.8234e-10 -1.11467e-11 3.01817e-10 -2.80746e-10 7.73091 5.47488 0.417314 -1.11508e-11 3.01827e-10 -2.80748e-10 2.90554 0.965183 0.102902 -1.11377e-11 3.01821e-10 -2.80748e-10 10.2786 0.731801 0.0259123 -1.1143e-11 3.01828e-10 -2.80743e-10 2.22167 -0.733487 -0.20892 -8.61799e-14 -4.73617e-14 3.09739e-14 -98.1327 37.714 32.766 26.8643 -44.3669 -92.1799 0.983119 -26.9609 4.09948 1.50533e-10 2.74176e-10 6.70321e-10 2.4532e-10 4.05605e-10 1.16285e-09 1.50528e-10 2.74172e-10 6.70332e-10 -7.73091 5.47488 -0.417314 1.50535e-10 2.74179e-10 6.70319e-10 -2.90554 0.965183 -0.102902 1.50527e-10 2.74171e-10 6.7032e-10 -10.2786 0.731801 -0.0259123 1.50539e-10 2.74176e-10 6.70305e-10 -2.22167 -0.733487 0.20892 -2.03217e-16 0.0 -3.88251e-19 9.13812 22.8553 12.0142 0.0326378 6.62317 0.568511 3.49505 43.314 -5.6875 2.03217e-16 0.0 3.88251e-19 10.2125 -50.3931 0.0762243 0.574486 49.4497 -0.946343 0.829551 9.34696 -4.37085
-5.51465 89.2282 55.2367 -8.7864 -1.9275 7.3908 11.1925 13.6011 5.4601 -4.77426 -7.07782 1.56115 -0.165846 9.11672 0.192114 -3.55287 -38.2739 -0.797997 -0.0 0.0 0.0 -0.0 0.0 0.0 -2.00315e-13 4.65153e-14 -7.79236e-14 51.6336 45.1845 19.5407 -25.9601 -46.333 96.2849 -0.0342826 -5.23955 -0.738516 -5.80832e-10 -1.40782e-09 6.59943e-11 -1.00594e-09 -2.44256e-09 1.14644e-10 -5.8083e-10 -1.40783e-09 6.59875e-11 7.73091 5.47488 0.417314 -5.80836e-10 -1.40781e-09 6.59875e-11 2.90554 0.965183 0.102902 -5.80823e-10 -1.40782e-09 6.59857e-11 10.2786 0.731801 0.0259123 -5.80828e-10 -1.40781e-09 6.59918e-11 2.22167 -0.733487 -0.20892 -2.00426e-13 4.65149e-14 -7.81162e-14 -97.9728 37.4345 32.2096 26.7677 -44.6109 -92.6672 0.976687 -26.8809 4.0853 -1.35486e-10 -1.16606e-09 1.37651e-10 -2.39557e-10 -2.03199e-09 2.37441e-10 -1.35491e-10 -1.16606e-09 1.37664e-10 -7.73091 5.47488 -0.417314 -1.35484e-10 -1.16606e-09 1.37651e-10 -2.90554 0.965183 -0.102902 -1.35493e-10 -1.16606e-09 1.37651e-10 -10.2786 0.731801 -0.0259123 -1.3548e-10 -1.16606e-09 1.37641e-10 -2.22167 -0.733487 0.20892 -2.03217e-16 0.0 -3.88251e-19 9.79032 21.9498 12.4943 -0.00386759 10.4157 0.474099 2.91008 41.6721 -5.07825 2.03217e-16 0.0 3.88251e-19 10.1227 -48.9639 -0.660095 0.440692 44.4148 -0.6763 0.82498 9.46198 -4.1892
-5.56343 89.443 57.9866 -9.2759 -1.8761 7.1592 11.0158 13.9553 5.48466 -4.82786 -7.15583 1.54598 -0.161047 8.76531 0.202768 -3.64735 -38.1014 -0.802088 -0.0 0.0 0.0 -0.0 0.0 0.0 -2.97943e-13 1.37807e-13 -1.76133e-13 51.638 46.4103 19.0811 -26.0196 -46.218 96.0383 -0.0310303 -5.00721 -0.705556 -1.10139e-09 -2.93304e-09 3.80975e-10 -1.90632e-09 -5.08018e-09 6.56591e-10 -1.10138e-09 -2.93306e-09 3.80966e-10 7.73091 5.47488 0.417314 -1.10139e-09 -2.93303e-09 3.80968e-10 2.90554 0.965183 0.102902 -1.10138e-09 -2.93306e-09 3.80965e-10 10.2786 0.731801 0.0259123 -1.10138e-09 -2.93303e-09 3.80971e-10 2.22167 -0.733487 -0.20892 -2.98033e-13 1.37807e-13 -1.76226e-13 -97.6637 37.2373 31.4056 26.6846 -44.8133 -93.0751 0.968784 -26.782 4.0678 -4.42465e-10 -2.70612e-09 -4.2956e-10 -7.59842e-10 -4.63988e-09 -7.48246e-10 -4.42471e-10 -2.70612e-09 -4.29545e-10 -7.73091 5.47488 -0.417314 -4.42463e-10 -2.70612e-09 -4.29558e-10 -2.90554 0.965183 -0.102902 -4.42472e-10 -2.70612e-09 -4.29558e-10 -10.2786 0.731801 -0.0259123 -4.4246e-10 -2.70613e-09 -4.29563e-10 -2.22167 -0.733487 0.20892 -2.03217e-16 0.0 -3.88251e-19 10.5661 20.6251 12.8487 -0.0378391 15.0814 0.389174 2.41463 39.6146 -4.6414 2.03217e-16 0.0 3.88251e-19 10.1574 -47.4888 -1.2176 0.361365 39.7937 -0.436654 0.790849 9.52339 -3.81005
-5.63624 89.5412 60.6515 -9.852 -1.9887 6.9687 10.7841 14.2987 5.52681 -4.9015 -7.07673 1.53479 -0.124373 8.48994 0.218595 -3.64274 -38.1467 -0.772016 -0.0 0.0 0.0 -0.0 0.0 0.0 -3.29185e-13 1.84472e-13 -2.18613e-13 51.8987 47.4898 18.5125 -26.1297 -46.0175 95.5837 -0.0297231 -4.91527 -0.692513 -1.31327e-09 -3.38711e-09 4.79666e-10 -2.27242e-09 -5.8639e-09 8.25698e-10 -1.31327e-09 -3.38713e-09 4.79656e-10 7.73091 5.47488 0.417314 -1.31327e-09 -3.38709e-09 4.79659e-10 2.90554 0.965183 0.102902 -1.31326e-09 -3.38712e-09 4.79655e-10 10.2786 0.731801 0.0259123 -1.31327e-09 -3.38709e-09 4.79663e-10 2.22167 -0.733487 -0.20892 -3.29261e-13 1.84472e-13 -2.18663e-13 -97.115 37.1456 30.3184 26.626 -44.9479 -93.3542 0.962861 -26.7074 4.05461 -5.94679e-10 -3.48018e-09 -7.13866e-10 -1.0177e-09 -5.95238e-09 -1.24236e-09 -5.94685e-10 -3.48018e-09 -7.1385e-10 -7.73091 5.47488 -0.417314 -5.94677e-10 -3.48018e-09 -7.13863e-10 -2.90554 0.965183 -0.102902 -5.94686e-10 -3.48018e-09 -7.13864e-10 -10.2786 0.731801 -0.0259123 -5.94675e-10 -3.48019e-09 -7.13866e-10 -2.22167 -0.733487 0.20892 -2.03217e-16 0.0 -3.88251e-19 11.201 19.3377 12.9346 -0.0797838 19.6375 0.319964 2.26429 38.4616 -4.64897 2.03217e-16 0.0 3.88251e-19 10.1901 -46.1215 -1.65608 0.320338 36.0058 -0.222868 0.712437 9.39084 -3.17938
